<svg width="50" height="50" viewBox="0 0 50 50" fill="none" xmlns="http://www.w3.org/2000/svg">
<path d="M45.8333 23.0833V25C45.8308 29.4925 44.376 33.8639 41.6861 37.4621C38.9962 41.0603 35.2152 43.6926 30.907 44.9664C26.5988 46.2402 21.9943 46.0873 17.7801 44.5304C13.566 42.9735 9.96802 40.096 7.52282 36.3272C5.07763 32.5584 3.91622 28.1001 4.21182 23.6173C4.50741 19.1345 6.24417 14.8673 9.16307 11.4522C12.082 8.03711 16.0266 5.65703 20.4087 4.66695C24.7908 3.67688 29.3756 4.12985 33.4792 5.95832" stroke="url(#paint0_linear_829_13)" stroke-width="3" stroke-linecap="round" stroke-linejoin="round"/>
<path d="M45.8333 8.33331L25 29.1875L18.75 22.9375" stroke="url(#paint1_linear_829_13)" stroke-width="3" stroke-linecap="round" stroke-linejoin="round"/>
<defs>
<linearGradient id="paint0_linear_829_13" x1="39.375" y1="9.77972" x2="12.0833" y2="41.2381" gradientUnits="userSpaceOnUse">
<stop stop-color="#EB3850"/>
<stop offset="1" stop-color="#CB162E"/>
</linearGradient>
<linearGradient id="paint1_linear_829_13" x1="41.6354" y1="11.1486" x2="28.8893" y2="30.2292" gradientUnits="userSpaceOnUse">
<stop stop-color="#EB3850"/>
<stop offset="1" stop-color="#CB162E"/>
</linearGradient>
</defs>
</svg>
