<svg width="300" height="623" viewBox="0 0 300 623" fill="none" xmlns="http://www.w3.org/2000/svg">
<path d="M0 80.211C0 78.6693 1.24983 77.4194 2.79156 77.4194C3.30548 77.4194 3.72208 77.836 3.72208 78.35V99.5658C3.72208 100.08 3.30548 100.496 2.79156 100.496C1.24983 100.496 0 99.2465 0 97.7048V80.211Z" fill="#E51D37"/>
<path d="M0 120.596C0 119.362 0.99986 118.362 2.23325 118.362H2.97767C3.3888 118.362 3.72208 118.696 3.72208 119.107V157.816C3.72208 158.228 3.3888 158.561 2.97767 158.561H2.23325C0.99986 158.561 0 157.561 0 156.328V120.596Z" fill="#E51D37"/>
<path d="M0 174.194C0 172.96 0.99986 171.96 2.23325 171.96H2.97767C3.3888 171.96 3.72208 172.294 3.72208 172.705V211.414C3.72208 211.826 3.3888 212.159 2.97767 212.159H2.23325C0.99986 212.159 0 211.159 0 209.926V174.194Z" fill="#E51D37"/>
<path d="M297.022 136.973C297.022 136.562 297.356 136.228 297.767 136.228C299 136.228 300 137.228 300 138.462V200.248C300 201.482 299 202.481 297.767 202.481C297.356 202.481 297.022 202.148 297.022 201.737V136.973Z" fill="#E51D37"/>
<path fill-rule="evenodd" clip-rule="evenodd" d="M255.335 0H44.665C20.8195 0 1.48884 19.3307 1.48884 43.1762V579.156C1.48884 603.002 20.8195 622.333 44.665 622.333H255.335C279.181 622.333 298.511 603.002 298.511 579.156V43.1762C298.511 19.3307 279.181 0 255.335 0ZM10.4218 43.1762C10.4218 24.2642 25.753 8.933 44.665 8.933H66.3155C68.8808 9.83572 70.7196 12.2803 70.7196 15.1542C70.7196 24.2579 78.0995 31.6377 87.2031 31.6377H212.052C221.156 31.6377 228.536 24.2579 228.536 15.1542C228.536 12.2803 230.375 9.83572 232.94 8.933H255.335C274.247 8.933 289.578 24.2642 289.578 43.1762V579.156C289.578 598.068 274.247 613.4 255.335 613.4H44.665C25.753 613.4 10.4218 598.068 10.4218 579.156V43.1762Z" fill="#E51D37" fill-opacity="0.15"/>
<rect x="133.251" y="16.3772" width="32.7543" height="2.97767" rx="1.48883" fill="#E51D37"/>
<circle cx="181.638" cy="17.866" r="3.72208" fill="#E51D37"/>
</svg>
